#!OML:ASF H:\GeneralSubjects\Female5\Project 1\Capture day 1\Session 1\Female5.ASF
:FULLY-SPECIFIED
:DEGREES
299
root 3.49093 16.1289 0.668576 154.407 -61.0071 188.872
lowerback 21.574 1.97349 2.09516
upperback -3.09931 3.83311 4.81482
thorax -16.0507 1.78602 3.05764
lowerneck -16.5598 3.36143 5.73468
upperneck 37.667 3.38795 -4.87654
head 16.5481 0.915883 -2.73053
rclavicle 1.35174e-014 -5.24792e-014
rhumerus -40.2971 51.2192 -73.7527
rradius 38.6961
rwrist -10.5471
rhand -25.9928 -2.87549
rfingers 7.12502
rthumb 0.552682 -32.8545
lclavicle 1.35174e-014 -5.24792e-014
lhumerus -22.8176 -36.5832 85.7931
lradius 60.1701
lwrist -0.590832
lhand -33.4456 30.477
lfingers 7.12502
lthumb -6.6444 60.3528
rfemur -23.8314 -21.9993 30.7334
rtibia 72.1633
rfoot -27.7424 -16.585
rtoes 34.8428
lfemur -40.0888 6.72272 -26.8427
ltibia 93.5547
lfoot 35.3522 -4.03935
ltoes -63.9376
300
root 3.4912 16.1199 0.691224 154.351 -60.9955 188.85
lowerback 21.587 1.96762 1.91265
upperback -3.10249 3.77137 4.75171
thorax -16.066 1.77324 3.10962
lowerneck -16.4656 3.35423 5.82191
upperneck 37.2886 3.42135 -4.98161
head 16.3343 0.939687 -2.76752
rclavicle -8.15017e-015 4.29375e-014
rhumerus -39.2314 50.3269 -72.9778
rradius 40.7591
rwrist -12.5215
rhand -26.7837 -3.86125
rfingers 7.12502
rthumb -0.211223 -33.8409
lclavicle -8.15017e-015 4.29375e-014
lhumerus -22.4611 -36.6919 85.6341
lradius 61.1838
lwrist -0.767568
lhand -33.5562 30.3516
lfingers 7.12502
lthumb -6.75115 60.2239
rfemur -24.1284 -22.0915 30.6097
rtibia 72.5402
rfoot -26.4492 -18.7712
rtoes 37.4156
lfemur -40.0236 6.55824 -26.9763
ltibia 93.6666
lfoot 36.9326 -5.23745
ltoes -64.3822
301
root 3.4916 16.1097 0.712132 154.168 -60.9286 189.016
lowerback 21.5842 1.94551 1.83604
upperback -3.10501 3.71688 4.71049
thorax -16.0659 1.75435 3.12437
lowerneck -16.2388 3.27235 5.72529
upperneck 36.6878 3.34922 -4.90257
head 15.9592 0.926237 -2.69888
rclavicle -2.44505e-014 1.98785e-014
rhumerus -38.2638 49.3703 -72.4049
rradius 42.802
rwrist -14.1535
rhand -27.302 -4.58845
rfingers 7.12502
rthumb -0.711779 -34.567
lclavicle -2.44505e-014 1.98785e-014
lhumerus -22.4384 -36.6209 85.5529
lradius 62.5278
lwrist -0.92288
lhand -33.466 30.4573
lfingers 7.12502
lthumb -6.66408 60.3325
rfemur -24.5366 -22.1391 30.6198
rtibia 73.0922
rfoot -24.811 -20.9151
rtoes 39.5654
lfemur -40.0794 6.46193 -26.9744
ltibia 93.8315
lfoot 39.0168 -5.94591
ltoes -64.2467
302
root 3.49302 16.0962 0.734468 154.301 -60.8905 188.809
lowerback 21.6998 1.94491 1.56582
upperback -3.11007 3.64244 4.63844
thorax -16.1495 1.74364 3.21978
lowerneck -16.5402 3.31126 5.3495
upperneck 36.6719 3.3296 -4.34199
head 15.9989 0.949831 -2.38676
rclavicle 2.36554e-014 -7.95139e-016
rhumerus -37.3144 48.3279 -72.0108
rradius 44.6243
rwrist -15.0234
rhand -27.2153 -4.67591
rfingers 7.12502
rthumb -0.62801 -34.6547
lclavicle 2.36554e-014 -7.95139e-016
lhumerus -22.6038 -36.2916 85.5617
lradius 63.8022
lwrist -1.21494
lhand -33.4569 30.2906
lfingers 7.12502
lthumb -6.65529 60.166
rfemur -24.9347 -22.0843 30.4364
rtibia 73.4589
rfoot -23.5848 -23.1867
rtoes 40.7844
lfemur -40.0872 6.46251 -27.1715
ltibia 93.9678
lfoot 40.2571 -6.93319
ltoes -64.577
303
root 3.49242 16.0816 0.75798 154.398 -60.7988 188.615
lowerback 21.8367 1.95662 1.31764
upperback -3.10527 3.59229 4.59089
thorax -16.2357 1.74283 3.32263
lowerneck -17.1467 3.41504 5.16578
upperneck 36.916 3.41565 -4.0206
head 16.2649 1.00391 -2.20297
rclavicle 3.10104e-014 -2.46493e-014
rhumerus -36.4777 47.194 -71.7783
rradius 46.2535
rwrist -15.2057
rhand -27.1099 -4.33578
rfingers 7.12502
rthumb -0.526202 -34.3149
lclavicle 3.10104e-014 -2.46493e-014
lhumerus -23.0254 -35.867 85.7623
lradius 65.0205
lwrist -1.50373
lhand -33.5986 30.1353
lfingers 7.12502
lthumb -6.79205 60.0064
rfemur -25.3294 -22.0421 30.3254
rtibia 73.5431
rfoot -22.6286 -25.6903
rtoes 41.7939
lfemur -40.0131 6.53154 -27.2837
ltibia 94.0189
lfoot 41.9481 -7.75584
ltoes -64.4733
304
root 3.49007 16.0682 0.780566 154.251 -60.6527 188.729
lowerback 21.8838 1.92887 1.16868
upperback -3.05894 3.51845 4.63831
thorax -16.2167 1.72621 3.48901
lowerneck -17.5262 3.46862 5.3143
upperneck 36.6555 3.59211 -4.33672
head 16.2489 1.06519 -2.32229
rclavicle 3.12092e-014 -2.78299e-014
rhumerus -35.8129 46.4222 -71.7621
rradius 47.932
rwrist -15.4862
rhand -27.3607 -4.22052
rfingers 7.12502
rthumb -0.768466 -34.1989
lclavicle 3.12092e-014 -2.78299e-014
lhumerus -23.6387 -35.1733 86.181
lradius 66.195
lwrist -1.64832
lhand -33.747 30.086
lfingers 7.12502
lthumb -6.9353 59.9524
rfemur -25.735 -22.0026 30.3926
rtibia 73.5044
rfoot -21.687 -28.2736
rtoes 41.9156
lfemur -39.9975 6.66884 -27.2336
ltibia 94.0614
lfoot 44.0425 -8.6383
ltoes -64.2548
305
root 3.48814 16.0541 0.803656 154.135 -60.4866 188.842
lowerback 21.9655 1.88255 0.951913
upperback -2.97132 3.40527 4.74029
thorax -16.1737 1.70051 3.77193
lowerneck -17.8574 3.55212 5.76208
upperneck 36.0017 3.93007 -5.17537
head 16.0599 1.17222 -2.67668
rclavicle -2.34566e-014 -4.37326e-014
rhumerus -35.2611 46.2399 -72.0504
rradius 49.5801
rwrist -16.544
rhand -27.9953 -4.38527
rfingers 7.12502
rthumb -1.38136 -34.3605
lclavicle -2.34566e-014 -4.37326e-014
lhumerus -24.1574 -34.1872 86.7127
lradius 67.0096
lwrist -1.62705
lhand -33.9495 30.3418
lfingers 7.12502
lthumb -7.1308 60.2016
rfemur -26.3076 -21.8304 30.4893
rtibia 73.8127
rfoot -19.8069 -30.4128
rtoes 41.0013
lfemur -39.9991 6.87448 -27.2003
ltibia 94.0433
lfoot 46.0808 -9.30384
ltoes -64.0856
306
root 3.48574 16.0391 0.829059 154.122 -60.2837 188.857
lowerback 22.0987 1.86175 0.768325
upperback -2.90647 3.33346 4.79576
thorax -16.1856 1.68778 3.96691
lowerneck -18.1158 3.72151 6.19408
upperneck 35.3488 4.32985 -5.84574
head 15.8639 1.32663 -2.93922
rclavicle 7.7526e-015 6.52014e-014
rhumerus -34.9359 46.1356 -72.7009
rradius 51.0745
rwrist -17.8644
rhand -28.7127 -4.84616
rfingers 7.12502
rthumb -2.07429 -34.8158
lclavicle 7.7526e-015 6.52014e-014
lhumerus -24.7509 -33.1168 87.3281
lradius 67.5444
lwrist -1.67976
lhand -34.0715 30.6796
lfingers 7.12502
lthumb -7.24858 60.5355
rfemur -27.0045 -21.5414 30.6034
rtibia 74.4089
rfoot -17.1661 -31.8364
rtoes 40.1919
lfemur -39.9752 7.12396 -27.2337
ltibia 93.9777
lfoot 47.2576 -10.5328
ltoes -64.5896
307
root 3.47921 16.024 0.85699 154.229 -60.0942 188.76
lowerback 22.159 1.8734 0.706326
upperback -2.91172 3.32971 4.75077
thorax -16.2281 1.68993 3.9508
lowerneck -18.2253 3.84828 6.47621
upperneck 34.9489 4.57602 -6.19558
head 15.736 1.43259 -3.07512
rclavicle 1.76918e-014 -4.69132e-014
rhumerus -34.9808 45.7975 -73.6914
rradius 52.4014
rwrist -18.8768
rhand -29.1637 -5.68363
rfingers 7.12502
rthumb -2.50978 -35.6486
lclavicle 1.76918e-014 -4.69132e-014
lhumerus -25.6199 -32.2506 88.1808
lradius 67.898
lwrist -1.69828
lhand -34.0284 30.8284
lfingers 7.12502
lthumb -7.20702 60.6856
rfemur -27.6532 -21.231 30.6248
rtibia 75.0696
rfoot -14.0067 -32.8146
rtoes 39.1819
lfemur -39.9089 7.22083 -27.3276
ltibia 93.8428
lfoot 48.8869 -11.5735
ltoes -64.7114
308
root 3.46799 16.0063 0.887113 154.324 -59.8601 188.718
lowerback 22.1677 1.8941 0.792211
upperback -2.96833 3.37806 4.6871
thorax -16.2957 1.70084 3.81002
lowerneck -18.4163 3.92086 6.73187
upperneck 34.8393 4.73343 -6.56083
head 15.7644 1.48381 -3.24441
rclavicle 9.93923e-015 8.26944e-014
rhumerus -35.3438 45.3841 -74.9393
rradius 53.542
rwrist -19.664
rhand -29.2743 -6.18527
rfingers 7.12502
rthumb -2.61663 -36.149
lclavicle 9.93923e-015 8.26944e-014
lhumerus -26.7114 -31.6578 89.2749
lradius 68.0223
lwrist -1.36148
lhand -33.9298 31.1301
lfingers 7.12502
lthumb -7.11179 60.9906
rfemur -28.3072 -20.7169 30.6472
rtibia 76.1935
rfoot -10.5349 -33.105
rtoes 37.8079
lfemur -39.7884 7.06646 -27.1946
ltibia 93.5954
lfoot 51.0154 -12.4133
ltoes -64.8112
